<?xml version="1.0" encoding="utf-8"?>
<!-- Generator: Adobe Illustrator 27.3.1, SVG Export Plug-In . SVG Version: 6.00 Build 0)  -->
<svg version="1.1" id="Layer_1" xmlns="http://www.w3.org/2000/svg" xmlns:xlink="http://www.w3.org/1999/xlink" x="0px" y="0px"
	 viewBox="0 0 100 100" style="enable-background:new 0 0 100 100;" xml:space="preserve">
<style type="text/css">
	.st0{fill:#FFFFFF;}
</style>
<g>
	<g>
		<path class="st0" d="M50,0H0v50c0,27.6,22.4,50,50,50s50-22.4,50-50C100,22.4,77.6,0,50,0z M42.7,56.7v0.1v7.3h-7.4
			c-4,0-7.3-3.2-7.4-7.3h0V33.9v-7.4h7.4c4.1,0,7.4,3.3,7.4,7.4V56.7z M72.1,73.6H60.3c-6.5,0-11.8-5.3-11.8-11.8V50V38.2V26.4h11.8
			c6.5,0,11.8,5.3,11.8,11.8S66.9,50,60.3,50c6.5,0,11.8,5.3,11.8,11.8h0V73.6z"/>
	</g>
</g>
</svg>
